# Blender 5.1.1
# www.blender.org
mtllib Mesh_Trout.mtl
o Mesh_Trout
v 0.016579 -0.595599 0.349989
v 0.325827 -0.285526 0.349989
v 0.325827 0.334619 0.349989
v 0.016579 0.644692 0.349989
v 0.016579 -0.581611 1.178956
v 0.325827 -0.271538 1.178956
v 0.325827 0.334619 1.178956
v 0.016579 0.644692 1.178956
v 0.016579 0.530630 -0.426190
v 0.275673 0.270845 -0.426190
v 0.275673 -0.248725 -0.426190
v 0.016579 -0.508509 -0.426190
v 0.016579 0.448752 -0.916195
v 0.241569 0.223163 -0.916195
v 0.241568 -0.228015 -0.916195
v 0.016579 -0.453605 -0.916195
v 0.016579 0.323322 -1.550058
v 0.163328 0.176182 -1.550058
v 0.163328 -0.118098 -1.550058
v 0.016579 -0.265238 -1.550058
v 0.016579 0.291611 -1.923184
v 0.145273 0.162574 -1.923184
v 0.145273 -0.095499 -1.923184
v 0.016579 -0.224536 -1.923184
v 0.016579 0.364865 -2.235281
v 0.051251 0.209529 -2.323282
v 0.051251 -0.142454 -2.323282
v 0.016579 -0.300496 -2.246807
v 0.016579 -0.434202 1.862272
v 0.287787 -0.189112 1.826796
v 0.276472 0.305958 1.941907
v 0.016579 0.503901 2.148806
v 0.016579 -0.347146 2.275857
v 0.238772 -0.141070 2.275857
v 0.238772 0.271082 2.275857
v 0.016579 0.477159 2.275857
v 0.016579 -0.265621 2.675955
v 0.185440 -0.113794 2.675955
v 0.185440 0.189861 2.675955
v 0.016579 0.341688 2.675955
v 0.016579 -0.143827 2.954675
v 0.117710 -0.095631 2.954675
v 0.117710 0.117077 2.954675
v 0.016579 0.187040 2.954675
v 0.016579 0.696791 -2.970635
v 0.051251 0.407871 -2.970635
v 0.051251 -0.169968 -2.915803
v 0.016579 -0.458888 -3.042559
v 0.185440 -0.009726 2.768259
v 0.117710 0.014900 2.954675
v 0.117710 -0.036172 2.954675
v 0.016579 -0.036172 2.675957
v 0.016579 -0.036172 2.994231
v 0.016579 0.055360 3.050325
v 0.016579 0.407871 -2.970635
v 0.016579 -0.169968 -2.915803
v -0.292669 -0.285526 0.349989
v -0.292669 0.334619 0.349989
v -0.292669 -0.271538 1.178956
v -0.292669 0.334619 1.178956
v -0.242515 0.270845 -0.426190
v -0.242515 -0.248725 -0.426190
v -0.208410 0.223163 -0.916195
v -0.208410 -0.228015 -0.916195
v -0.130170 0.176182 -1.550058
v -0.130170 -0.118098 -1.550058
v -0.112115 0.162574 -1.923184
v -0.112115 -0.095499 -1.923184
v -0.018093 0.209529 -2.323282
v -0.018093 -0.142454 -2.323282
v -0.254629 -0.189112 1.826796
v -0.243314 0.305958 1.941907
v -0.205614 -0.141070 2.275857
v -0.205614 0.271082 2.275857
v -0.152282 -0.113794 2.675955
v -0.152282 0.189861 2.675955
v -0.084552 -0.095631 2.954675
v -0.084552 0.117077 2.954675
v -0.018093 0.407871 -2.970635
v -0.018093 -0.169968 -2.915803
v -0.152282 -0.009726 2.768259
v -0.084552 0.014900 2.954675
v -0.084552 -0.036172 2.954675
v -0.022382 0.590848 0.760605
v 0.055540 0.590848 0.760605
v 0.002866 1.208482 0.048763
v 0.030292 1.208482 0.048763
v 0.002866 0.639965 -0.485936
v 0.030292 0.639965 -0.485936
v -0.022382 0.492237 -0.085425
v 0.055540 0.492237 -0.085425
v 0.048760 -0.421101 -0.844778
v -0.015740 -0.421196 -0.844815
v 0.028771 -0.871527 -1.612999
v 0.006069 -0.871560 -1.613012
v 0.028109 -0.330013 -1.740033
v 0.005407 -0.330046 -1.740046
v 0.048756 -0.247517 -1.388215
v -0.015744 -0.247613 -1.388252
v -0.000823 0.318711 -1.231177
v 0.033981 0.318711 -1.231177
v 0.010454 0.459707 -1.692969
v 0.022704 0.459707 -1.692969
v 0.010454 0.354135 -1.787933
v 0.022704 0.354135 -1.787933
v -0.000823 0.274668 -1.532625
v 0.033981 0.274668 -1.532625
v 0.201529 -0.195408 1.960843
v 0.142358 -0.245789 1.966544
v 0.623673 -0.744433 1.497558
v 0.602847 -0.762166 1.499565
v 0.318659 -0.368363 1.441527
v 0.297833 -0.386096 1.443534
v 0.195076 -0.190060 1.770635
v 0.135906 -0.240442 1.776335
v -0.168370 -0.195408 1.960843
v -0.109200 -0.245789 1.966544
v -0.590515 -0.744433 1.497558
v -0.569689 -0.762166 1.499565
v -0.285501 -0.368363 1.441527
v -0.264675 -0.386096 1.443534
v -0.161918 -0.190060 1.770635
v -0.102747 -0.240442 1.776335
v 0.144287 -0.451667 0.403481
v 0.077890 -0.492193 0.408067
v 0.487344 -1.044348 -0.113157
v 0.463974 -1.058612 -0.111544
v 0.249022 -0.598291 -0.116599
v 0.225652 -0.612555 -0.114985
v 0.143168 -0.421819 0.153057
v 0.076771 -0.462345 0.157642
v -0.111129 -0.451667 0.403481
v -0.044732 -0.492193 0.408067
v -0.454186 -1.044348 -0.113157
v -0.430816 -1.058612 -0.111544
v -0.215864 -0.598291 -0.116599
v -0.192494 -0.612555 -0.114985
v -0.110010 -0.421819 0.153057
v -0.043612 -0.462345 0.157642
v 0.169712 0.084532 2.515570
v 0.169712 0.176106 2.515570
v 0.163855 0.221894 2.594660
v 0.157997 0.176106 2.673748
v 0.157997 0.084532 2.673748
v 0.163855 0.038744 2.594660
v 0.238601 0.084532 2.520672
v 0.238601 0.176106 2.520672
v 0.232744 0.221894 2.599761
v 0.226887 0.176106 2.678851
v 0.226887 0.084532 2.678851
v 0.232744 0.038744 2.599761
v 0.232744 0.130319 2.599761
v -0.136554 0.084532 2.515570
v -0.136554 0.176106 2.515570
v -0.130697 0.221894 2.594659
v -0.124839 0.176106 2.673749
v -0.124839 0.084532 2.673749
v -0.130697 0.038744 2.594659
v -0.205443 0.084532 2.520672
v -0.205443 0.176106 2.520672
v -0.199586 0.221894 2.599761
v -0.193728 0.176106 2.678851
v -0.193728 0.084532 2.678851
v -0.199586 0.038744 2.599761
v -0.199586 0.130319 2.599761
vn 0.7080 -0.7061 0.0119
vn 1.0000 -0.0000 -0.0000
vn 0.7080 0.7062 -0.0000
vn 0.7043 0.7024 -0.1032
vn 0.7037 0.7019 -0.1103
vn 0.7032 0.7013 -0.1167
vn 0.9979 -0.0000 -0.0645
vn 0.9978 -0.0000 -0.0669
vn 0.9976 -0.0000 -0.0693
vn 0.7058 -0.7040 -0.0790
vn 0.7058 -0.7040 -0.0789
vn 0.7032 0.7013 -0.1172
vn 0.9976 -0.0000 -0.0694
vn 0.7012 0.6994 -0.1384
vn 0.9925 -0.0000 -0.1225
vn 0.6930 -0.6911 -0.2054
vn 0.7068 0.7049 -0.0599
vn 0.9988 -0.0000 -0.0483
vn 0.7060 -0.7041 -0.0768
vn 0.8629 0.5046 -0.0287
vn 0.9735 -0.0000 -0.2288
vn 0.8656 -0.4999 -0.0275
vn 0.6887 -0.7109 0.1424
vn 0.9981 0.0038 0.0617
vn 0.6813 0.7264 0.0904
vn 0.6736 -0.7233 0.1522
vn 0.6723 -0.7247 0.1510
vn 0.6731 -0.7238 0.1518
vn 0.9939 -0.0016 0.1101
vn 0.9942 -0.0002 0.1079
vn 0.9942 -0.0001 0.1079
vn 0.6723 0.7245 0.1518
vn 0.6702 -0.7274 0.1474
vn 0.6681 -0.7300 0.1438
vn 0.9942 -0.0000 0.1077
vn 0.6558 0.7165 0.2377
vn 0.5741 -0.7749 0.2643
vn 0.9493 -0.1545 0.2737
vn 0.5909 0.7193 0.3653
vn 0.9881 0.1433 0.0550
vn 0.9876 -0.1556 0.0208
vn 0.9871 0.0672 0.1452
vn 0.9825 -0.1236 0.1394
vn 0.9539 0.0878 0.2869
vn -0.1048 0.9938 0.0380
vn 0.2381 -0.2237 0.9451
vn -0.0484 -0.9792 0.1970
vn 0.5417 0.3182 0.7780
vn -0.0000 -0.0000 -1.0000
vn -0.0000 0.4018 -0.9157
vn -0.0000 -0.0945 -0.9955
vn -0.7080 -0.7061 0.0119
vn -1.0000 -0.0000 -0.0000
vn -0.7080 0.7062 -0.0000
vn -0.7043 0.7024 -0.1032
vn -0.7032 0.7013 -0.1167
vn -0.7037 0.7019 -0.1103
vn -0.9979 -0.0000 -0.0645
vn -0.9976 -0.0000 -0.0693
vn -0.9978 -0.0000 -0.0669
vn -0.7058 -0.7040 -0.0790
vn -0.7058 -0.7040 -0.0789
vn -0.7032 0.7013 -0.1172
vn -0.9976 -0.0000 -0.0694
vn -0.7012 0.6994 -0.1384
vn -0.9925 -0.0000 -0.1225
vn -0.6930 -0.6911 -0.2054
vn -0.7068 0.7049 -0.0599
vn -0.9988 -0.0000 -0.0483
vn -0.7060 -0.7041 -0.0768
vn -0.8629 0.5046 -0.0287
vn -0.9735 -0.0000 -0.2288
vn -0.8656 -0.4999 -0.0275
vn -0.6887 -0.7109 0.1424
vn -0.9981 0.0038 0.0617
vn -0.6813 0.7264 0.0904
vn -0.6736 -0.7233 0.1522
vn -0.6731 -0.7238 0.1518
vn -0.6725 -0.7245 0.1512
vn -0.9939 -0.0016 0.1101
vn -0.9942 -0.0001 0.1079
vn -0.9942 -0.0002 0.1079
vn -0.6723 0.7245 0.1518
vn -0.6681 -0.7300 0.1438
vn -0.6702 -0.7274 0.1474
vn -0.9942 -0.0000 0.1077
vn -0.6558 0.7165 0.2377
vn -0.5741 -0.7749 0.2643
vn -0.9493 -0.1545 0.2737
vn -0.5909 0.7193 0.3653
vn -0.9881 0.1433 0.0550
vn -0.9876 -0.1556 0.0208
vn -0.9871 0.0672 0.1452
vn -0.9825 -0.1236 0.1394
vn -0.9539 0.0878 0.2869
vn 0.1048 0.9938 0.0380
vn -0.2381 -0.2237 0.9451
vn 0.0484 -0.9792 0.1970
vn -0.5417 0.3182 0.7780
vn -0.0000 0.7553 0.6554
vn -0.0000 0.6851 -0.7284
vn -0.0000 -0.9382 -0.3461
vn 0.9991 0.0387 -0.0187
vn -0.9991 0.0387 -0.0187
vn 0.0010 -0.8627 0.5058
vn 0.0009 -0.2284 -0.9736
vn -0.0013 0.9736 -0.2282
vn -0.9993 -0.0255 -0.0262
vn 0.9994 -0.0229 -0.0254
vn -0.0000 0.9564 0.2920
vn -0.0000 0.6688 -0.7435
vn -0.0000 -0.9548 -0.2972
vn 0.9988 0.0459 -0.0173
vn -0.9988 0.0459 -0.0173
vn 0.4077 -0.3851 0.8279
vn 0.0179 -0.1331 -0.9909
vn -0.5729 0.6111 -0.5462
vn -0.7574 -0.6510 -0.0505
vn 0.7836 0.6206 -0.0299
vn -0.4077 -0.3851 0.8279
vn -0.0179 -0.1331 -0.9909
vn 0.5729 0.6111 -0.5462
vn 0.7574 -0.6510 -0.0505
vn -0.7836 0.6206 -0.0299
vn 0.3539 -0.4897 0.7968
vn -0.0484 -0.0336 -0.9983
vn -0.4444 0.6596 -0.6061
vn -0.8571 -0.4991 -0.1273
vn 0.8824 0.4683 0.0457
vn -0.3539 -0.4897 0.7968
vn 0.0484 -0.0336 -0.9983
vn 0.4444 0.6596 -0.6061
vn 0.8571 -0.4991 -0.1273
vn -0.8824 0.4683 0.0457
vn 0.0739 -0.0000 -0.9973
vn 0.0369 0.8660 -0.4986
vn -0.0369 0.8660 0.4986
vn -0.0739 -0.0000 0.9973
vn -0.0369 -0.8660 0.4986
vn 0.0369 -0.8660 -0.4986
vn 0.9973 -0.0000 0.0739
vn -0.0739 -0.0000 -0.9973
vn -0.0369 0.8660 -0.4986
vn 0.0369 0.8660 0.4986
vn 0.0739 -0.0000 0.9973
vn 0.0369 -0.8660 0.4986
vn -0.0369 -0.8660 -0.4986
vn -0.9973 -0.0000 0.0739
vt 0.153013 0.733475
vt 0.178970 0.733475
vt 0.178970 0.793419
vt 0.153013 0.793419
vt 0.532433 0.739047
vt 0.467784 0.738639
vt 0.469795 0.686167
vt 0.532986 0.686566
vt 0.291612 0.287761
vt 0.270219 0.287761
vt 0.270219 0.238356
vt 0.291612 0.238356
vt 0.288143 0.334019
vt 0.270219 0.334019
vt 0.526714 0.788154
vt 0.472550 0.787812
vt 0.153013 0.677348
vt 0.174760 0.677348
vt 0.285783 0.363223
vt 0.270219 0.363223
vt 0.523367 0.819157
vt 0.476332 0.818860
vt 0.153013 0.641915
vt 0.171898 0.641915
vt 0.280371 0.400999
vt 0.270219 0.400999
vt 0.510371 0.859207
vt 0.479693 0.859014
vt 0.153013 0.596079
vt 0.165331 0.596079
vt 0.279122 0.423237
vt 0.270219 0.423237
vt 0.507110 0.882811
vt 0.480206 0.882641
vt 0.153013 0.569097
vt 0.163815 0.569097
vt 0.768780 0.421072
vt 0.768712 0.415613
vt 0.794063 0.417281
vt 0.794157 0.424727
vt 0.768574 0.404694
vt 0.793876 0.402389
vt 0.768505 0.399235
vt 0.793782 0.394943
vt 0.175777 0.840266
vt 0.153013 0.842831
vt 0.474633 0.637892
vt 0.525964 0.645504
vt 0.270219 0.180555
vt 0.288198 0.192886
vt 0.153013 0.872738
vt 0.479079 0.616777
vt 0.522045 0.617048
vt 0.595568 0.192886
vt 0.577589 0.180555
vt 0.577589 0.172983
vt 0.592960 0.172983
vt 0.171663 0.872738
vt 0.167187 0.901670
vt 0.153013 0.901670
vt 0.641698 0.369258
vt 0.641917 0.386695
vt 0.616427 0.374015
vt 0.724434 0.172983
vt 0.709064 0.172983
vt 0.709064 0.149138
vt 0.720745 0.149138
vt 0.161502 0.921825
vt 0.153013 0.921825
vt 0.616386 0.370731
vt 0.598784 0.374237
vt 0.598752 0.371722
vt 0.709064 0.132527
vt 0.716060 0.132527
vt 0.261610 0.724981
vt 0.261582 0.722740
vt 0.367302 0.610289
vt 0.273993 0.728789
vt 0.261526 0.718258
vt 0.216257 0.606616
vt 0.261497 0.716017
vt 0.275177 0.714057
vt 0.616548 0.383578
vt 0.598811 0.376398
vt 0.598866 0.380721
vt 0.760507 0.574306
vt 0.773563 0.620596
vt 0.741011 0.620595
vt 0.741011 0.567737
vt 0.346165 0.669898
vt 0.351514 0.650402
vt 0.358115 0.650402
vt 0.358115 0.669898
vt 0.734414 0.567737
vt 0.721358 0.614026
vt 0.701863 0.629912
vt 0.701863 0.567737
vt 0.651035 0.131158
vt 0.658801 0.150653
vt 0.644185 0.150653
vt 0.639693 0.131158
vt 0.269290 0.848370
vt 0.340801 0.836088
vt 0.372958 0.900204
vt 0.288770 0.834823
vt 0.372958 0.848370
vt 0.269290 0.900204
vt 0.749151 0.134083
vt 0.837269 0.134083
vt 0.837269 0.222201
vt 0.749151 0.222201
vt 0.837269 0.310319
vt 0.749151 0.310319
vt 0.837269 0.398437
vt 0.749151 0.398437
vt 0.925387 0.134083
vt 0.925387 0.222201
vt 0.661033 0.134083
vt 0.661033 0.222201
vt 0.208381 0.558418
vt 0.310055 0.558418
vt 0.310055 0.660092
vt 0.208381 0.660092
vt 0.310055 0.761767
vt 0.208381 0.761767
vt 0.310055 0.863441
vt 0.208381 0.863441
vt 0.411730 0.558418
vt 0.411730 0.660092
vt 0.106706 0.558418
vt 0.106706 0.660092
vt 0.645167 0.301601
vt 0.688628 0.301601
vt 0.688628 0.345061
vt 0.645167 0.345061
vt 0.688628 0.388522
vt 0.645167 0.388522
vt 0.688628 0.431983
vt 0.645167 0.431983
vt 0.732089 0.301601
vt 0.732089 0.345061
vt 0.601706 0.301601
vt 0.601706 0.345061
vt 0.322461 0.575193
vt 0.365606 0.575193
vt 0.365606 0.618338
vt 0.322461 0.618338
vt 0.365606 0.661484
vt 0.322461 0.661484
vt 0.365606 0.704629
vt 0.322461 0.704629
vt 0.408752 0.575193
vt 0.408752 0.618338
vt 0.279315 0.575193
vt 0.279315 0.618338
vt 0.209514 0.171946
vt 0.221543 0.171946
vt 0.221543 0.280471
vt 0.209514 0.280471
vt 0.233571 0.171946
vt 0.233571 0.280471
vt 0.245599 0.171946
vt 0.245599 0.280471
vt 0.257627 0.171946
vt 0.257627 0.280471
vt 0.269655 0.171946
vt 0.269655 0.280471
vt 0.281684 0.171946
vt 0.281684 0.280471
vt 0.272127 0.364368
vt 0.227021 0.364368
vt 0.249574 0.323501
vt 0.204468 0.325305
vt 0.227021 0.286242
vt 0.272127 0.286242
vt 0.294680 0.325305
s 1
usemtl lambert2SG
f 1/1/1 2/2/1 6/3/1 5/4/1
f 2/5/2 3/6/2 7/7/2 6/8/2
f 3/9/3 4/10/3 8/11/3 7/12/3
f 4/10/4 3/9/4 10/13/5 9/14/6
f 3/6/7 2/5/7 11/15/8 10/16/9
f 2/2/10 1/1/10 12/17/11 11/18/11
f 9/14/6 10/13/5 14/19/12 13/20/12
f 10/16/9 11/15/8 15/21/13 14/22/13
f 11/18/11 12/17/11 16/23/11 15/24/11
f 13/20/14 14/19/14 18/25/14 17/26/14
f 14/22/15 15/21/15 19/27/15 18/28/15
f 15/24/16 16/23/16 20/29/16 19/30/16
f 17/26/17 18/25/17 22/31/17 21/32/17
f 18/28/18 19/27/18 23/33/18 22/34/18
f 19/30/19 20/29/19 24/35/19 23/36/19
f 21/37/20 22/38/20 26/39/20 25/40/20
f 22/38/21 23/41/21 27/42/21 26/39/21
f 23/41/22 24/43/22 28/44/22 27/42/22
f 5/4/23 6/3/23 30/45/23 29/46/23
f 6/8/24 7/7/24 31/47/24 30/48/24
f 7/12/25 8/11/25 32/49/25 31/50/25
f 29/46/26 30/45/27 33/51/28
f 30/48/29 31/47/29 35/52/30 34/53/31
f 31/54/32 32/55/32 36/56/32 35/57/32
f 33/51/28 34/58/33 38/59/34 37/60/34
f 34/61/31 35/62/30 49/63/35
f 35/64/36 36/65/36 40/66/36 39/67/36
f 37/60/37 38/59/37 42/68/37 41/69/37
f 38/70/38 49/63/38 51/71/38 42/72/38
f 39/67/39 40/66/39 44/73/39 43/74/39
f 25/75/40 26/76/40 46/77/40 45/78/40
f 26/76/2 27/79/2 47/80/2 46/77/2
f 27/79/41 28/81/41 48/82/41 47/80/41
f 49/63/42 35/62/42 39/83/42
f 34/61/43 49/63/43 38/70/43
f 50/84/44 49/63/44 39/83/44 43/85/44
f 51/86/45 49/87/45 52/88/45 53/89/45
f 41/90/46 42/91/46 51/92/46 53/93/46
f 49/94/47 50/95/47 54/96/47 52/97/47
f 43/98/48 44/99/48 54/100/48 50/101/48
f 33/51/28 30/45/27 34/58/33
f 45/102/49 46/103/49 55/104/49
f 47/105/50 48/106/50 56/107/50
f 55/104/51 46/103/51 47/105/51 56/107/51
f 1/1/52 5/4/52 59/3/52 57/2/52
f 57/5/53 59/8/53 60/7/53 58/6/53
f 58/9/54 60/12/54 8/11/54 4/10/54
f 4/10/55 9/14/56 61/13/57 58/9/55
f 58/6/58 61/16/59 62/15/60 57/5/58
f 57/2/61 62/18/62 12/17/62 1/1/61
f 9/14/56 13/20/63 63/19/63 61/13/57
f 61/16/59 63/22/64 64/21/64 62/15/60
f 62/18/62 64/24/62 16/23/62 12/17/62
f 13/20/65 17/26/65 65/25/65 63/19/65
f 63/22/66 65/28/66 66/27/66 64/21/66
f 64/24/67 66/30/67 20/29/67 16/23/67
f 17/26/68 21/32/68 67/31/68 65/25/68
f 65/28/69 67/34/69 68/33/69 66/27/69
f 66/30/70 68/36/70 24/35/70 20/29/70
f 21/37/71 25/40/71 69/39/71 67/38/71
f 67/38/72 69/39/72 70/42/72 68/41/72
f 68/41/73 70/42/73 28/44/73 24/43/73
f 5/4/74 29/46/74 71/45/74 59/3/74
f 59/8/75 71/48/75 72/47/75 60/7/75
f 60/12/76 72/50/76 32/49/76 8/11/76
f 29/46/77 33/51/78 71/45/79
f 71/48/80 73/53/81 74/52/82 72/47/80
f 72/54/83 74/57/83 36/56/83 32/55/83
f 33/51/78 37/60/84 75/59/84 73/58/85
f 73/61/81 81/63/86 74/62/82
f 74/64/87 76/67/87 40/66/87 36/65/87
f 37/60/88 41/69/88 77/68/88 75/59/88
f 75/70/89 77/72/89 83/71/89 81/63/89
f 76/67/90 78/74/90 44/73/90 40/66/90
f 25/75/91 45/78/91 79/77/91 69/76/91
f 69/76/53 79/77/53 80/80/53 70/79/53
f 70/79/92 80/80/92 48/82/92 28/81/92
f 81/63/93 76/83/93 74/62/93
f 73/61/94 75/70/94 81/63/94
f 82/84/95 78/85/95 76/83/95 81/63/95
f 83/86/96 53/89/96 52/88/96 81/87/96
f 41/90/97 53/93/97 83/92/97 77/91/97
f 81/94/98 52/97/98 54/96/98 82/95/98
f 78/98/99 82/101/99 54/100/99 44/99/99
f 33/51/78 73/58/85 71/45/79
f 45/102/49 55/104/49 79/103/49
f 80/105/50 56/107/50 48/106/50
f 55/104/51 56/107/51 80/105/51 79/103/51
f 84/108/100 85/109/100 87/110/100 86/111/100
f 86/111/101 87/110/101 89/112/101 88/113/101
f 88/113/102 89/112/102 91/114/102 90/115/102
f 85/109/103 91/116/103 89/117/103 87/110/103
f 90/118/104 84/108/104 86/111/104 88/119/104
f 92/120/105 93/121/105 95/122/105 94/123/105
f 94/123/106 95/122/106 97/124/106 96/125/106
f 96/125/107 97/124/107 99/126/107 98/127/107
f 93/121/108 99/128/108 97/129/108 95/122/108
f 98/130/109 92/120/109 94/123/109 96/131/109
f 100/132/110 101/133/110 103/134/110 102/135/110
f 102/135/111 103/134/111 105/136/111 104/137/111
f 104/137/112 105/136/112 107/138/112 106/139/112
f 101/133/113 107/140/113 105/141/113 103/134/113
f 106/142/114 100/132/114 102/135/114 104/143/114
f 108/144/115 109/145/115 111/146/115 110/147/115
f 110/147/116 111/146/116 113/148/116 112/149/116
f 112/149/117 113/148/117 115/150/117 114/151/117
f 109/145/118 115/152/118 113/153/118 111/146/118
f 114/154/119 108/144/119 110/147/119 112/155/119
f 116/144/120 118/147/120 119/146/120 117/145/120
f 118/147/121 120/149/121 121/148/121 119/146/121
f 120/149/122 122/151/122 123/150/122 121/148/122
f 117/145/123 119/146/123 121/153/123 123/152/123
f 122/154/124 120/155/124 118/147/124 116/144/124
f 124/144/125 125/145/125 127/146/125 126/147/125
f 126/147/126 127/146/126 129/148/126 128/149/126
f 128/149/127 129/148/127 131/150/127 130/151/127
f 125/145/128 131/152/128 129/153/128 127/146/128
f 130/154/129 124/144/129 126/147/129 128/155/129
f 132/144/130 134/147/130 135/146/130 133/145/130
f 134/147/131 136/149/131 137/148/131 135/146/131
f 136/149/132 138/151/132 139/150/132 137/148/132
f 133/145/133 135/146/133 137/153/133 139/152/133
f 138/154/134 136/155/134 134/147/134 132/144/134
f 140/156/135 141/157/135 147/158/135 146/159/135
f 141/157/136 142/160/136 148/161/136 147/158/136
f 142/160/137 143/162/137 149/163/137 148/161/137
f 143/162/138 144/164/138 150/165/138 149/163/138
f 144/164/139 145/166/139 151/167/139 150/165/139
f 145/166/140 140/168/140 146/169/140 151/167/140
f 146/170/141 147/171/141 152/172/141
f 147/171/141 148/173/141 152/172/141
f 148/173/141 149/174/141 152/172/141
f 149/174/141 150/175/141 152/172/141
f 150/175/141 151/176/141 152/172/141
f 151/176/141 146/170/141 152/172/141
f 153/156/142 159/159/142 160/158/142 154/157/142
f 154/157/143 160/158/143 161/161/143 155/160/143
f 155/160/144 161/161/144 162/163/144 156/162/144
f 156/162/145 162/163/145 163/165/145 157/164/145
f 157/164/146 163/165/146 164/167/146 158/166/146
f 158/166/147 164/167/147 159/169/147 153/168/147
f 159/170/148 165/172/148 160/171/148
f 160/171/148 165/172/148 161/173/148
f 161/173/148 165/172/148 162/174/148
f 162/174/148 165/172/148 163/175/148
f 163/175/148 165/172/148 164/176/148
f 164/176/148 165/172/148 159/170/148
